<svg width="120" height="40" viewBox="0 0 120 40" fill="none" xmlns="http://www.w3.org/2000/svg">
<mask id="path-1-inside-1_161_55" fill="white">
<path fill-rule="evenodd" clip-rule="evenodd" d="M0.572049 21.4003C-0.190685 20.6226 -0.190683 19.3774 0.572054 18.5997L11.787 7.16365L17.6207 0.538437C17.9221 0.196142 18.3561 0 18.8122 0H101.188C101.684 0 102.155 0.213645 102.482 0.586262L108.586 7.54384L119.428 18.5997C120.191 19.3774 120.191 20.6226 119.428 21.4003L108.586 32.4562L102.482 39.4137C102.155 39.7864 101.684 40 101.188 40H18.8121C18.3561 40 17.9221 39.8039 17.6208 39.4617L11.7878 32.8372L0.572049 21.4003ZM104.853 4.80475L115.518 18.7871C116.064 19.5034 116.064 20.4966 115.518 21.2129L104.853 35.1952L102.112 38.319C101.733 38.7518 101.185 39 100.609 39H19.4505C18.8759 39 18.3291 38.7529 17.9494 38.3217L14.8289 34.7777L4.48252 21.2129C3.93615 20.4966 3.93615 19.5034 4.48252 18.7871L14.8296 5.22144L17.9494 1.6783C18.3291 1.24709 18.8759 1 19.4505 1H100.609C101.185 1 101.733 1.24818 102.112 1.68104L104.853 4.80475Z"/>
</mask>
<path fill-rule="evenodd" clip-rule="evenodd" d="M0.572049 21.4003C-0.190685 20.6226 -0.190683 19.3774 0.572054 18.5997L11.787 7.16365L17.6207 0.538437C17.9221 0.196142 18.3561 0 18.8122 0H101.188C101.684 0 102.155 0.213645 102.482 0.586262L108.586 7.54384L119.428 18.5997C120.191 19.3774 120.191 20.6226 119.428 21.4003L108.586 32.4562L102.482 39.4137C102.155 39.7864 101.684 40 101.188 40H18.8121C18.3561 40 17.9221 39.8039 17.6208 39.4617L11.7878 32.8372L0.572049 21.4003ZM104.853 4.80475L115.518 18.7871C116.064 19.5034 116.064 20.4966 115.518 21.2129L104.853 35.1952L102.112 38.319C101.733 38.7518 101.185 39 100.609 39H19.4505C18.8759 39 18.3291 38.7529 17.9494 38.3217L14.8289 34.7777L4.48252 21.2129C3.93615 20.4966 3.93615 19.5034 4.48252 18.7871L14.8296 5.22144L17.9494 1.6783C18.3291 1.24709 18.8759 1 19.4505 1H100.609C101.185 1 101.733 1.24818 102.112 1.68104L104.853 4.80475Z" fill="#F839F9"/>
<path d="M11.787 7.16365L12.501 7.86382L12.5198 7.84465L12.5375 7.8245L11.787 7.16365ZM108.586 7.54384L107.834 8.20332L107.853 8.22419L107.872 8.24401L108.586 7.54384ZM108.586 32.4562L107.872 31.756L107.853 31.7758L107.834 31.7967L108.586 32.4562ZM11.7878 32.8372L12.5383 32.1764L12.5206 32.1562L12.5018 32.137L11.7878 32.8372ZM104.853 4.80475L105.648 4.19829L105.627 4.17104L105.604 4.14527L104.853 4.80475ZM104.853 35.1952L105.604 35.8547L105.627 35.829L105.648 35.8017L104.853 35.1952ZM14.8289 34.7777L14.0338 35.3842L14.0551 35.4122L14.0784 35.4386L14.8289 34.7777ZM14.8296 5.22144L14.0791 4.56059L14.0558 4.58699L14.0345 4.61497L14.8296 5.22144ZM102.112 1.68104L102.864 1.02156L102.112 1.68104ZM102.112 38.319L101.361 37.6595L102.112 38.319ZM115.518 21.2129L114.723 20.6065L115.518 21.2129ZM4.48252 18.7871L5.27763 19.3935L4.48252 18.7871ZM102.482 39.4137L103.234 40.0732L102.482 39.4137ZM102.482 0.586262L103.234 -0.0732172L102.482 0.586262ZM17.9494 38.3217L18.6999 37.6609L17.9494 38.3217ZM119.428 18.5997L118.714 19.2998L119.428 18.5997ZM119.428 21.4003L118.714 20.7002L119.428 21.4003ZM17.6208 39.4617L18.3713 38.8008L17.6208 39.4617ZM0.572054 18.5997L-0.141918 17.8995L0.572054 18.5997ZM11.0731 6.46348L-0.141918 17.8995L1.28603 19.2998L12.501 7.86382L11.0731 6.46348ZM16.8702 -0.122413L11.0365 6.5028L12.5375 7.8245L18.3712 1.19929L16.8702 -0.122413ZM101.188 -1H18.8122V1H101.188V-1ZM109.338 6.88436L103.234 -0.0732172L101.73 1.24574L107.834 8.20332L109.338 6.88436ZM120.142 17.8995L109.3 6.84366L107.872 8.24401L118.714 19.2998L120.142 17.8995ZM109.3 33.1563L120.142 22.1005L118.714 20.7002L107.872 31.756L109.3 33.1563ZM103.234 40.0732L109.338 33.1156L107.834 31.7967L101.73 38.7543L103.234 40.0732ZM18.8121 41H101.188V39H18.8121V41ZM11.0373 33.4981L16.8703 40.1225L18.3713 38.8008L12.5383 32.1764L11.0373 33.4981ZM-0.141926 22.1005L11.0738 33.5374L12.5018 32.137L1.28602 20.7002L-0.141926 22.1005ZM104.058 5.41122L114.723 19.3935L116.313 18.1806L105.648 4.19829L104.058 5.41122ZM114.723 20.6065L104.058 34.5888L105.648 35.8017L116.313 21.8194L114.723 20.6065ZM104.101 34.5358L101.361 37.6595L102.864 38.9784L105.604 35.8547L104.101 34.5358ZM100.609 38H19.4505V40H100.609V38ZM18.6999 37.6609L15.5794 34.1169L14.0784 35.4386L17.1989 38.9825L18.6999 37.6609ZM15.624 34.1713L5.27763 20.6065L3.6874 21.8194L14.0338 35.3842L15.624 34.1713ZM5.27763 19.3935L15.6247 5.8279L14.0345 4.61497L3.68741 18.1806L5.27763 19.3935ZM15.5801 5.88229L18.6999 2.33915L17.1989 1.01745L14.0791 4.56059L15.5801 5.88229ZM19.4505 2H100.609V0H19.4505V2ZM101.361 2.34052L104.101 5.46423L105.604 4.14527L102.864 1.02156L101.361 2.34052ZM100.609 2C100.897 2 101.171 2.12409 101.361 2.34052L102.864 1.02156C102.294 0.372274 101.473 0 100.609 0V2ZM18.6999 2.33915C18.8898 2.12355 19.1632 2 19.4505 2V0C18.5886 0 17.7684 0.370637 17.1989 1.01745L18.6999 2.33915ZM101.361 37.6595C101.171 37.8759 100.897 38 100.609 38V40C101.473 40 102.294 39.6277 102.864 38.9784L101.361 37.6595ZM114.723 19.3935C114.996 19.7517 114.996 20.2483 114.723 20.6065L116.313 21.8194C117.132 20.7449 117.132 19.2551 116.313 18.1806L114.723 19.3935ZM5.27763 20.6065C5.00445 20.2483 5.00445 19.7517 5.27763 19.3935L3.68741 18.1806C2.86786 19.2551 2.86785 20.7449 3.6874 21.8194L5.27763 20.6065ZM101.73 38.7543C101.593 38.9104 101.396 39 101.188 39V41C101.972 41 102.717 40.6623 103.234 40.0732L101.73 38.7543ZM101.188 1C101.396 1 101.593 1.08955 101.73 1.24574L103.234 -0.0732172C102.717 -0.662264 101.972 -1 101.188 -1V1ZM19.4505 38C19.1632 38 18.8898 37.8765 18.6999 37.6609L17.1989 38.9825C17.7684 39.6294 18.5886 40 19.4505 40V38ZM118.714 19.2998C119.096 19.6887 119.096 20.3113 118.714 20.7002L120.142 22.1005C121.286 20.9339 121.286 19.0661 120.142 17.8995L118.714 19.2998ZM18.3712 1.19929C18.4828 1.0726 18.6434 1 18.8122 1V-1C18.0689 -1 17.3614 -0.680312 16.8702 -0.122413L18.3712 1.19929ZM18.8121 39C18.6434 39 18.4828 38.9274 18.3713 38.8008L16.8703 40.1225C17.3615 40.6803 18.0688 41 18.8121 41V39ZM-0.141918 17.8995C-1.28602 19.0661 -1.28603 20.9339 -0.141926 22.1005L1.28602 20.7002C0.904658 20.3113 0.904658 19.6887 1.28603 19.2998L-0.141918 17.8995Z" fill="#F839F9" mask="url(#path-1-inside-1_161_55)"/>
</svg>
