<svg width="121" height="40" viewBox="0 0 121 40" fill="none" xmlns="http://www.w3.org/2000/svg">
<mask id="path-1-inside-1_161_61" fill="white">
<path fill-rule="evenodd" clip-rule="evenodd" d="M120.84 1L104.522 18.6419C103.813 19.4085 103.813 20.5915 104.522 21.3581L120.84 39C121.193 39.3814 120.923 40 120.403 40H21.9999C21.7435 40 21.4969 39.9015 21.3111 39.7248L1.29479 20.69C0.900109 20.3147 0.900109 19.6853 1.29479 19.31L21.311 0.275317C21.4968 0.098566 21.7435 0 22 0H120.403C120.923 0 121.193 0.618637 120.84 1ZM19.1207 36.2618C19.0484 36.1931 18.9814 36.1191 18.9202 36.0404L7.3995 21.2279C6.83778 20.5057 6.83779 19.4943 7.39951 18.7721L18.9206 3.95919C18.9818 3.88049 19.0489 3.80648 19.1211 3.73777L21.421 1.5507C21.7927 1.19716 22.2861 1 22.7992 1H114.904C116.648 1 117.557 3.07742 116.372 4.35806L102.532 19.321C102.177 19.7042 102.177 20.2958 102.532 20.679L116.372 35.6419C117.557 36.9226 116.648 39 114.904 39H22.7992C22.2861 39 21.7927 38.8028 21.421 38.4493L19.1207 36.2618Z"/>
</mask>
<path fill-rule="evenodd" clip-rule="evenodd" d="M120.84 1L104.522 18.6419C103.813 19.4085 103.813 20.5915 104.522 21.3581L120.84 39C121.193 39.3814 120.923 40 120.403 40H21.9999C21.7435 40 21.4969 39.9015 21.3111 39.7248L1.29479 20.69C0.900109 20.3147 0.900109 19.6853 1.29479 19.31L21.311 0.275317C21.4968 0.098566 21.7435 0 22 0H120.403C120.923 0 121.193 0.618637 120.84 1ZM19.1207 36.2618C19.0484 36.1931 18.9814 36.1191 18.9202 36.0404L7.3995 21.2279C6.83778 20.5057 6.83779 19.4943 7.39951 18.7721L18.9206 3.95919C18.9818 3.88049 19.0489 3.80648 19.1211 3.73777L21.421 1.5507C21.7927 1.19716 22.2861 1 22.7992 1H114.904C116.648 1 117.557 3.07742 116.372 4.35806L102.532 19.321C102.177 19.7042 102.177 20.2958 102.532 20.679L116.372 35.6419C117.557 36.9226 116.648 39 114.904 39H22.7992C22.2861 39 21.7927 38.8028 21.421 38.4493L19.1207 36.2618Z" fill="#F839F9"/>
<path d="M102.532 20.679L103.266 20V20L102.532 20.679ZM18.9206 3.95919L19.71 4.57313L18.9206 3.95919ZM19.1211 3.73777L18.432 3.01312L19.1211 3.73777ZM18.9202 36.0404L19.7096 35.4265L18.9202 36.0404ZM19.1207 36.2618L18.4316 36.9865L19.1207 36.2618ZM21.421 1.5507L22.1101 2.27535L21.421 1.5507ZM21.3111 39.7248L20.6219 40.4494L21.3111 39.7248ZM1.29479 19.31L1.98391 20.0347H1.98391L1.29479 19.31ZM7.3995 21.2279L8.18886 20.6139L7.3995 21.2279ZM7.39951 18.7721L6.61015 18.1582L7.39951 18.7721ZM21.311 0.275317L20.6218 -0.449333L21.311 0.275317ZM21.421 38.4493L22.1101 37.7247L21.421 38.4493ZM104.522 18.6419L105.256 19.321L104.522 18.6419ZM104.522 21.3581L105.256 20.679L104.522 21.3581ZM105.256 19.321L121.575 1.67903L120.106 0.320969L103.788 17.9629L105.256 19.321ZM121.575 38.321L105.256 20.679L103.788 22.0371L120.106 39.679L121.575 38.321ZM21.9999 41H120.403V39H21.9999V41ZM0.605674 21.4146L20.6219 40.4494L22.0002 39.0001L1.98391 19.9653L0.605674 21.4146ZM20.6218 -0.449333L0.605674 18.5854L1.98391 20.0347L22.0001 0.999967L20.6218 -0.449333ZM120.403 -1H22V1H120.403V-1ZM6.61015 21.8418L18.1309 36.6543L19.7096 35.4265L8.18886 20.6139L6.61015 21.8418ZM18.1313 3.34526L6.61015 18.1582L8.18886 19.3861L19.71 4.57313L18.1313 3.34526ZM20.7318 0.82605L18.432 3.01312L19.8102 4.46242L22.1101 2.27535L20.7318 0.82605ZM114.904 0H22.7992V2H114.904V0ZM103.266 20L117.106 5.03709L115.638 3.67903L101.798 18.6419L103.266 20ZM117.106 34.9629L103.266 20L101.798 21.3581L115.638 36.321L117.106 34.9629ZM22.7992 40H114.904V38H22.7992V40ZM18.4316 36.9865L20.7318 39.174L22.1101 37.7247L19.8098 35.5372L18.4316 36.9865ZM115.638 36.321C116.23 36.9613 115.776 38 114.904 38V40C117.521 40 118.883 36.8839 117.106 34.9629L115.638 36.321ZM101.798 18.6419C101.089 19.4085 101.089 20.5915 101.798 21.3581L103.266 20V20L101.798 18.6419ZM114.904 2C115.776 2 116.23 3.03871 115.638 3.67903L117.106 5.03709C118.883 3.11613 117.521 0 114.904 0V2ZM19.71 4.57313C19.7406 4.53378 19.7741 4.49678 19.8102 4.46242L18.432 3.01312C18.3236 3.11618 18.2231 3.2272 18.1313 3.34526L19.71 4.57313ZM18.1309 36.6543C18.2227 36.7724 18.3232 36.8834 18.4316 36.9865L19.8098 35.5372C19.7737 35.5028 19.7402 35.4658 19.7096 35.4265L18.1309 36.6543ZM120.403 1C120.051 1 119.867 0.579917 120.106 0.320969L121.575 1.67903C122.52 0.657358 121.795 -1 120.403 -1V1ZM22.1101 2.27535C22.296 2.09858 22.5427 2 22.7992 2V0C22.0296 0 21.2895 0.295733 20.7318 0.82605L22.1101 2.27535ZM21.9999 39L22.0002 39.0001L20.6219 40.4494C20.9936 40.8029 21.4869 41 21.9999 41V39ZM1.98391 19.9653C2.00374 19.9842 2.00374 20.0158 1.98391 20.0347L0.605675 18.5854C-0.203519 19.3549 -0.203519 20.6451 0.605675 21.4146L1.98391 19.9653ZM8.18886 20.6139C7.908 20.2528 7.908 19.7472 8.18886 19.3861L6.61015 18.1582C5.76757 19.2415 5.76756 20.7585 6.61015 21.8418L8.18886 20.6139ZM120.106 39.679C119.867 39.4201 120.051 39 120.403 39V41C121.795 41 122.52 39.3426 121.575 38.321L120.106 39.679ZM22.0001 0.999967L22 1V-1C21.487 -1 20.9936 -0.802856 20.6218 -0.449333L22.0001 0.999967ZM22.7992 38C22.5427 38 22.296 37.9014 22.1101 37.7247L20.7318 39.174C21.2895 39.7043 22.0296 40 22.7992 40V38ZM103.788 17.9629C102.725 19.1127 102.725 20.8873 103.788 22.0371L105.256 20.679C104.902 20.2958 104.902 19.7042 105.256 19.321L103.788 17.9629Z" fill="#F839F9" mask="url(#path-1-inside-1_161_61)"/>
</svg>
